<svg xmlns="http://www.w3.org/2000/svg" style="display: none;">
  <defs>
    <symbol id="send" width="24" height="24" viewBox="0 0 24 24">
      <path d="M2.01 21 23 12 2.01 3 2 10l15 2-15 2 .01 7Z"/>
    </symbol>
    <symbol id="arrow-right" width="24" height="24" viewBox="0 0 24 24">
      <path d="m14.2 4.8 6.5 6.5.71.7-.7.7-6.5 6.5-1.42-1.4 4.8-4.8H3v-2h14.59l-4.8-4.8 1.42-1.4Z"/>
    </symbol>
    <symbol id="chevron-right" width="24" height="24" viewBox="0 0 24 24">
      <path d="m13.59 12-5.8-5.8 1.42-1.4 6.5 6.5.7.7-.7.7-6.5 6.5-1.42-1.4 5.8-5.8Z"/>
    </symbol>
    <symbol id="github" width="24" height="24" viewBox="0 0 24 24">
      <path d="M22.9912 3.95021C22.9913 3.77357 22.9446 3.60007 22.8558 3.44735C22.7671 3.29464 22.6394 3.16817 22.4859 3.08084C22.3324 2.9935 22.1584 2.94842 21.9818 2.95017C21.8052 2.95193 21.6322 3.00046 21.4804 3.09083C20.8951 3.43921 20.265 3.70601 19.6074 3.88383C18.6684 3.07806 17.4708 2.63713 16.2334 2.64164C14.876 2.6432 13.5723 3.17223 12.5976 4.11702C11.623 5.06181 11.0536 6.3484 11.0098 7.70512C8.33378 7.27838 5.90843 5.88164 4.19625 3.78126C4.09308 3.65609 3.96133 3.55757 3.81211 3.494C3.66288 3.43043 3.50056 3.40368 3.33883 3.41601C3.17719 3.42932 3.02122 3.4818 2.88442 3.56892C2.74762 3.65603 2.63409 3.77516 2.55367 3.91601C2.1412 4.63582 1.9043 5.44276 1.86222 6.27131C1.82014 7.09986 1.97406 7.92666 2.31148 8.68456L2.30953 8.68651C2.15788 8.77991 2.03272 8.91066 1.94603 9.06625C1.85935 9.22185 1.81403 9.39708 1.81441 9.57519C1.81257 9.72211 1.82139 9.86898 1.84078 10.0146C1.94292 11.2729 2.50056 12.4507 3.40914 13.3271C3.3475 13.4446 3.30988 13.5731 3.29848 13.7052C3.28708 13.8373 3.30212 13.9704 3.34273 14.0967C3.73884 15.3308 4.58123 16.3727 5.70504 17.0185C4.56328 17.46 3.33046 17.614 2.11519 17.4668C1.89026 17.4386 1.66242 17.4876 1.46904 17.6059C1.27566 17.7242 1.12822 17.9047 1.0509 18.1178C0.973592 18.3309 0.970999 18.5639 1.04355 18.7787C1.1161 18.9935 1.25949 19.1772 1.45019 19.2998C3.54028 20.646 5.97387 21.3617 8.45996 21.3613C11.2792 21.393 14.0299 20.4921 16.2842 18.7988C18.5385 17.1054 20.1699 14.7145 20.9248 11.998C21.2778 10.8146 21.4581 9.58648 21.46 8.35157C21.46 8.28614 21.46 8.21876 21.459 8.15138C21.9811 7.58831 22.3855 6.92668 22.6486 6.20527C22.9117 5.48387 23.0282 4.7172 22.9912 3.95021ZM19.6845 7.16212C19.5194 7.35746 19.4358 7.60891 19.4511 7.86427C19.4609 8.02927 19.4599 8.19527 19.4599 8.35157C19.4579 9.39511 19.3049 10.4329 19.0058 11.4326C18.3893 13.744 17.015 15.7817 15.1029 17.2192C13.1908 18.6568 10.8516 19.4111 8.45996 19.3613C7.60084 19.3616 6.74468 19.2606 5.90918 19.0606C6.97459 18.7172 7.97077 18.1879 8.85156 17.4971C9.01378 17.3693 9.13251 17.1945 9.19145 16.9967C9.25038 16.7988 9.24664 16.5875 9.18073 16.3918C9.11483 16.1961 8.98999 16.0257 8.82334 15.9038C8.65669 15.7819 8.4564 15.7145 8.24996 15.7109C7.41879 15.698 6.62509 15.363 6.03609 14.7764C6.18551 14.7481 6.33395 14.7129 6.48141 14.6709C6.69742 14.6094 6.88645 14.477 7.01807 14.295C7.14969 14.1131 7.21623 13.8921 7.20698 13.6677C7.19773 13.4433 7.11324 13.2285 6.96709 13.058C6.82095 12.8874 6.62167 12.7711 6.40133 12.7275C5.91887 12.6323 5.46487 12.427 5.07464 12.1277C4.68441 11.8284 4.36845 11.4432 4.15133 11.002C4.33206 11.0266 4.51394 11.0419 4.69625 11.0479C4.91283 11.0511 5.12484 10.9854 5.30162 10.8603C5.47841 10.7351 5.6108 10.5569 5.67965 10.3516C5.74563 10.1443 5.74223 9.92123 5.66998 9.7161C5.59772 9.51096 5.46055 9.33499 5.27926 9.21485C4.83941 8.92182 4.4791 8.52427 4.23061 8.0578C3.98213 7.59134 3.85322 7.07052 3.85543 6.54201C3.85543 6.47561 3.85738 6.4092 3.86129 6.34377C6.10255 8.43402 9.00961 9.66621 12.0703 9.82326C12.2248 9.82934 12.3786 9.80024 12.5202 9.73816C12.6618 9.67607 12.7875 9.58262 12.8877 9.46486C12.9869 9.34596 13.0571 9.20566 13.0928 9.05501C13.1286 8.90437 13.1289 8.74748 13.0937 8.5967C13.0365 8.35806 13.0073 8.11357 13.0068 7.86818C13.0077 7.01271 13.3479 6.19254 13.9528 5.58764C14.5577 4.98274 15.3779 4.64251 16.2334 4.64161C16.6735 4.64043 17.1091 4.7305 17.5127 4.90615C17.9162 5.0818 18.279 5.3392 18.5781 5.66212C18.6934 5.7862 18.8386 5.87871 18.9998 5.93085C19.161 5.98299 19.3328 5.99303 19.499 5.96001C19.9097 5.88006 20.3146 5.7724 20.7109 5.63775C20.4406 6.19072 20.0952 6.70369 19.6845 7.16212Z" />
    </symbol>
    <symbol id="menu" width="24" height="24" viewBox="0 0 24 24">
      <path d="M22 6H2V4h20v2ZM2 13h16v-2H2v2Zm0 7h20v-2H2v2Z"/>
    </symbol>
    <symbol id="figma" width="24" height="24" viewBox="0 0 24 24">
      <path  d="M20.07 6.35004H15V7.76004H20.09L20.07 6.35004ZM19 16.05C18.6154 16.3049 18.1612 16.4342 17.7 16.42C17.3947 16.4519 17.0862 16.4203 16.7937 16.3274C16.5011 16.2345 16.2309 16.0822 16 15.88C15.573 15.3959 15.3507 14.7649 15.38 14.12H22C22.0477 13.4486 21.9904 12.7738 21.83 12.12C21.6749 11.4981 21.4034 10.9111 21.03 10.39C20.6541 9.88464 20.1686 9.47095 19.61 9.18004C18.9884 8.87358 18.3029 8.71933 17.61 8.73004C16.9583 8.72526 16.3123 8.85107 15.71 9.10004C15.1585 9.33253 14.6588 9.67247 14.24 10.1C13.8224 10.5362 13.499 11.0536 13.29 11.62C13.0657 12.2316 12.9539 12.8787 12.96 13.53C12.9497 14.1906 13.0581 14.8477 13.28 15.47C13.4685 16.0336 13.7677 16.5538 14.16 17C14.5659 17.4382 15.0648 17.7799 15.62 18C16.2391 18.2359 16.8976 18.3513 17.56 18.34C18.4894 18.369 19.407 18.1257 20.2 17.64C21.0009 17.0709 21.5775 16.2396 21.83 15.29H19.62C19.5017 15.6042 19.284 15.871 19 16.05ZM15.57 11.93C15.6478 11.6807 15.777 11.4505 15.9493 11.2541C16.1215 11.0578 16.3329 10.8997 16.57 10.79C16.884 10.6487 17.2258 10.5803 17.57 10.59C17.8186 10.5688 18.0689 10.6016 18.3036 10.6862C18.5384 10.7708 18.7521 10.9051 18.93 11.08C19.2698 11.496 19.4878 11.9978 19.56 12.53H15.41C15.4262 12.3268 15.463 12.1258 15.52 11.93H15.57ZM10.28 11.45C10.789 11.2381 11.2312 10.8926 11.56 10.45C11.8622 9.98004 12.0124 9.42837 11.99 8.87004C12.0096 8.36088 11.9103 7.85415 11.7 7.39004C11.5233 6.98795 11.2397 6.64206 10.88 6.39004C10.4987 6.12801 10.0656 5.9507 9.61 5.87004C9.07082 5.75695 8.52087 5.7033 7.97 5.71004H2V18.29H8.1C8.65669 18.2904 9.21116 18.2199 9.75 18.08C10.2607 17.9479 10.7446 17.728 11.18 17.43C11.6017 17.1378 11.9452 16.7463 12.18 16.29C12.4399 15.7798 12.5672 15.2124 12.55 14.64C12.5689 13.9308 12.37 13.2328 11.98 12.64C11.5606 12.044 10.9385 11.621 10.23 11.45H10.28ZM4.77 7.86004H7.36C7.59795 7.85974 7.83548 7.87982 8.07 7.92004C8.28595 7.95204 8.49334 8.02683 8.68 8.14004C8.86035 8.24205 9.00648 8.39514 9.1 8.58004C9.21582 8.80175 9.27102 9.05013 9.26 9.30004C9.27863 9.51527 9.24572 9.73185 9.16399 9.93184C9.08225 10.1318 8.95405 10.3095 8.79 10.45C8.43212 10.6961 8.00388 10.8189 7.57 10.8H4.77V7.86004ZM9.61 15.3C9.50726 15.5038 9.35189 15.6765 9.16 15.8C8.9603 15.9242 8.74027 16.0123 8.51 16.06C8.25406 16.1173 7.99224 16.1442 7.73 16.14H4.73V12.69H7.73C8.24482 12.6675 8.75322 12.8112 9.18 13.1C9.37281 13.2731 9.52217 13.4891 9.61599 13.7306C9.7098 13.972 9.74543 14.2322 9.72 14.49C9.74704 14.7649 9.70936 15.0423 9.61 15.3Z" />
    </symbol>
    <symbol id="copy" width="24" height="24" viewBox="0 0 24 24">
      <path d="M3 2h12v4H7v10H3V2Zm6 20V8h12v11l-3 3H9Z"/>
    </symbol>
    <symbol id="error" width="24" height="24" viewBox="0 0 24 24">
      <path d="M19.7 19H4.3L12 5.07 19.7 19ZM11.12 2.52l-9.39 17L2.61 21h18.78l.88-1.48-9.4-17h-1.75ZM11 14v-4h2v4h-2Zm0 3v-2h2v2h-2Z"/>
    </symbol>
    <symbol id="arrow-left" width="24" height="24" viewBox="0 0 24 24">
      <path d="m9.8 19.2-6.5-6.5-.71-.7.7-.7 6.5-6.5 1.42 1.4L6.4 11H21v2H6.41l4.8 4.8-1.42 1.4Z"/>
    </symbol>
    <symbol id="check" width="24" height="24" viewBox="0 0 24 24">
      <path d="m20.2 7.2-10 10-.7.71-.7-.7-5-5 1.4-1.42 4.3 4.3 9.3-9.3 1.4 1.42Z"/>
    </symbol>
    <symbol id="link" width="24" height="24" viewBox="0 0 24 24">
      <path d="M9 4 8 5v2h2V6h10v7H10v-2H8v3l1 1h12l1-1V5l-1-1H9Zm2 4H3L2 9v9l1 1h12l1-1v-2h-2v1H4v-7h10v2h2V9l-1-1h-4Z"/>
    </symbol>
    <symbol id="close" width="24" height="24" viewBox="0 0 24 24">
      <path d="M19 6.41 17.59 5 12 10.59 6.41 5 5 6.41 10.59 12 5 17.59 6.41 19 12 13.41 17.59 19 19 17.59 13.41 12 19 6.41Z"/>
    </symbol>
    <symbol id="pause" width="24" height="24" viewBox="0 0 24 24">
      <path d="M6 19h4V5H6v14Zm8-14v14h4V5h-4Z"/>
    </symbol>
    <symbol id="play" width="24" height="24" viewBox="0 0 24 24">
      <path d="M8 5v14l11-7L8 5Z"/>
    </symbol>
    <symbol id="bluesky" width="24" height="24" viewBox="0 0 24 24">
      <path   d="M17.5 8.99891C16.6047 8.99853 15.7233 9.21997 14.9345 9.64344C14.8626 9.45386 14.7346 9.29068 14.5677 9.17555C14.4008 9.06043 14.2027 8.99882 14 8.99891H9.99997C9.86863 8.99883 9.73856 9.02465 9.6172 9.07488C9.49584 9.1251 9.38557 9.19876 9.2927 9.29164C9.19982 9.38451 9.12617 9.49478 9.07594 9.61614C9.02571 9.7375 8.9999 9.86757 8.99997 9.99891V21.9989C8.99989 22.1303 9.02571 22.2603 9.07594 22.3817C9.12616 22.503 9.19982 22.6133 9.29269 22.7062C9.38557 22.7991 9.49584 22.8727 9.6172 22.9229C9.73856 22.9732 9.86863 22.999 9.99997 22.9989H14C14.1313 22.999 14.2614 22.9732 14.3827 22.9229C14.5041 22.8727 14.6144 22.7991 14.7072 22.7062C14.8001 22.6133 14.8738 22.503 14.924 22.3817C14.9742 22.2603 15 22.1303 15 21.9989V16.4989C15 16.2337 15.1053 15.9793 15.2929 15.7918C15.4804 15.6043 15.7348 15.4989 16 15.4989C16.2652 15.4989 16.5195 15.6043 16.7071 15.7918C16.8946 15.9793 17 16.2337 17 16.4989V21.9989C16.9999 22.1303 17.0257 22.2603 17.0759 22.3817C17.1262 22.503 17.1998 22.6133 17.2927 22.7062C17.3856 22.7991 17.4958 22.8727 17.6172 22.9229C17.7386 22.9732 17.8686 22.999 18 22.9989H22C22.1313 22.999 22.2614 22.9732 22.3827 22.9229C22.5041 22.8727 22.6144 22.7991 22.7072 22.7062C22.8001 22.6133 22.8738 22.503 22.924 22.3817C22.9742 22.2603 23 22.1303 23 21.9989V14.4989C22.9982 13.0408 22.4181 11.6429 21.3871 10.6118C20.356 9.58077 18.9581 9.00072 17.5 8.99891ZM21 20.9989H19V16.4989C19 15.7033 18.6839 14.9402 18.1213 14.3776C17.5587 13.815 16.7956 13.4989 16 13.4989C15.2043 13.4989 14.4413 13.815 13.8786 14.3776C13.316 14.9402 13 15.7033 13 16.4989V20.9989H11V10.9989H13V11.702C13.0001 11.9092 13.0645 12.1113 13.1844 12.2803C13.3043 12.4493 13.4737 12.5769 13.6692 12.6455C13.8647 12.7141 14.0767 12.7203 14.2759 12.6633C14.4751 12.6062 14.6517 12.4887 14.7812 12.327C15.23 11.7571 15.8456 11.3415 16.542 11.1383C17.2384 10.9351 17.9808 10.9544 18.6657 11.1936C19.3506 11.4328 19.9436 11.8799 20.3621 12.4725C20.7806 13.065 21.0036 13.7735 21 14.4989V20.9989ZM6.99997 8.99891H2.99997C2.86863 8.99883 2.73856 9.02465 2.6172 9.07488C2.49584 9.1251 2.38557 9.19876 2.2927 9.29164C2.19982 9.38451 2.12617 9.49478 2.07594 9.61614C2.02571 9.7375 1.9999 9.86757 1.99997 9.99891V21.9989C1.99989 22.1303 2.02571 22.2603 2.07594 22.3817C2.12616 22.503 2.19982 22.6133 2.29269 22.7062C2.38557 22.7991 2.49584 22.8727 2.6172 22.9229C2.73856 22.9732 2.86863 22.999 2.99997 22.9989H6.99997C7.13131 22.999 7.26138 22.9732 7.38274 22.9229C7.5041 22.8727 7.61437 22.7991 7.70725 22.7062C7.80012 22.6133 7.87378 22.503 7.92401 22.3817C7.97423 22.2603 8.00005 22.1303 7.99997 21.9989V9.99891C8.00005 9.86757 7.97423 9.7375 7.924 9.61614C7.87378 9.49478 7.80012 9.38451 7.70724 9.29164C7.61437 9.19876 7.5041 9.1251 7.38274 9.07488C7.26138 9.02465 7.13131 8.99883 6.99997 8.99891ZM5.99997 20.9989H3.99997V10.9989H5.99997V20.9989ZM5.01462 1.54191C4.57698 1.51571 4.13859 1.57881 3.7261 1.72735C3.31361 1.8759 2.93564 2.1068 2.61519 2.406C2.29473 2.70521 2.03849 3.06646 1.86203 3.46781C1.68557 3.86915 1.59259 4.3022 1.58875 4.7406C1.5849 5.17901 1.67027 5.61361 1.83966 6.01799C2.00904 6.42237 2.25891 6.78807 2.57407 7.09285C2.88922 7.39763 3.26308 7.63512 3.6729 7.79089C4.08272 7.94665 4.51994 8.01742 4.95797 7.99891H4.98629C5.42509 8.02497 5.86459 7.96129 6.27795 7.81176C6.6913 7.66223 7.06983 7.42998 7.39039 7.12922C7.71096 6.82845 7.96683 6.46548 8.14238 6.06249C8.31793 5.65949 8.40946 5.22494 8.41139 4.78537C8.41332 4.3458 8.3256 3.91046 8.15359 3.50594C7.98159 3.10142 7.7289 2.73622 7.41099 2.43266C7.09307 2.12909 6.7166 1.89353 6.30457 1.74038C5.89255 1.58723 5.45362 1.5197 5.01461 1.54191H5.01462ZM4.9863 5.99891H4.95797C4.78504 6.01991 4.60961 6.00369 4.44346 5.95134C4.27731 5.89899 4.12427 5.81171 3.99461 5.69537C3.86495 5.57903 3.76167 5.43631 3.69168 5.27678C3.6217 5.11726 3.58664 4.94461 3.58884 4.77042C3.58884 4.02432 4.14841 3.5419 5.01462 3.5419C5.18932 3.51861 5.36698 3.53303 5.53564 3.58418C5.70429 3.63534 5.86003 3.72204 5.99236 3.83845C6.12468 3.95486 6.23053 4.09828 6.30276 4.25904C6.37499 4.4198 6.41193 4.59418 6.4111 4.77042C6.4111 5.51651 5.85153 5.99891 4.9863 5.99891Z" />
    </symbol>
  </defs>
</svg>